<svg width="22" height="22" viewBox="0 0 22 22" fill="none" xmlns="http://www.w3.org/2000/svg">
<path d="M21.0735 17.0287C21.0735 17.5902 21.0005 18.097 20.8547 18.5491C20.7162 18.9938 20.5302 19.3876 20.2969 19.7303C20.0636 20.073 19.7901 20.3647 19.4766 20.6053C19.163 20.8459 18.8386 21.0428 18.5031 21.1959C18.1677 21.3491 17.825 21.4621 17.475 21.535C17.1323 21.6079 16.8078 21.6444 16.5016 21.6444H5.53127V18.8006H16.5016C17.0485 18.8006 17.4714 18.6402 17.7703 18.3194C18.0766 17.9985 18.2297 17.5683 18.2297 17.0287C18.2297 16.7662 18.1896 16.5256 18.1094 16.3069C18.0292 16.0881 17.9125 15.8985 17.7594 15.7381C17.6136 15.5777 17.4313 15.4537 17.2125 15.3662C17.0011 15.2787 16.7641 15.235 16.5016 15.235H9.96096C9.50159 15.235 9.00575 15.1548 8.47346 14.9944C7.94117 14.8267 7.44534 14.5605 6.98596 14.1959C6.53388 13.8313 6.15471 13.3537 5.84846 12.7631C5.5495 12.1725 5.40002 11.4506 5.40002 10.5975C5.40002 9.74437 5.5495 9.02614 5.84846 8.4428C6.15471 7.85218 6.53388 7.37457 6.98596 7.00999C7.44534 6.63812 7.94117 6.37197 8.47346 6.21155C9.00575 6.04385 9.50159 5.95999 9.96096 5.95999H19.6406V8.80374H9.96096C9.42138 8.80374 8.99846 8.9678 8.69221 9.29593C8.39325 9.62405 8.24377 10.0579 8.24377 10.5975C8.24377 11.1444 8.39325 11.5782 8.69221 11.8991C8.99846 12.2126 9.42138 12.3694 9.96096 12.3694H16.5016H16.5235C16.8297 12.3767 17.1542 12.4204 17.4969 12.5006C17.8396 12.5735 18.1787 12.6902 18.5141 12.8506C18.8568 13.011 19.1813 13.2152 19.4875 13.4631C19.7938 13.7037 20.0636 13.9954 20.2969 14.3381C20.5375 14.6808 20.7271 15.0746 20.8656 15.5194C21.0042 15.9642 21.0735 16.4673 21.0735 17.0287Z" fill="#EECC65"/>
<path d="M20.9247 0.359973H2.3528C2.14863 0.359973 1.95905 0.396431 1.78405 0.469348C1.60905 0.542265 1.45592 0.640702 1.32467 0.764661C1.20071 0.895911 1.10227 1.04904 1.02936 1.22404C0.956441 1.39904 0.919983 1.58862 0.919983 1.79279V21.6443H3.76373V3.20372H20.9247V0.359973Z" fill="#EECC65"/>
</svg>
